<?xml version="1.0" encoding="utf-8"?>
<!-- Generator: Adobe Illustrator 13.0.0, SVG Export Plug-In . SVG Version: 6.00 Build 14948)  -->
<!DOCTYPE svg PUBLIC "-//W3C//DTD SVG 1.1//EN" "http://www.w3.org/Graphics/SVG/1.1/DTD/svg11.dtd">
<svg version="1.1" id="Capa_1" xmlns="http://www.w3.org/2000/svg" xmlns:xlink="http://www.w3.org/1999/xlink" x="0px" y="0px"
	 width="48px" height="48px" viewBox="0 0 48 48" enable-background="new 0 0 48 48" xml:space="preserve">
<g>
	<path fill="#FF5E69" d="M30.678,8.612c-1.789,0-3.504,0.313-5.107,0.86c1.912,1.188,3.578,2.729,4.912,4.536
		c0.066-0.003,0.131-0.01,0.195-0.01c5.754,0,10.436,4.679,10.436,10.434s-4.682,10.433-10.436,10.433
		c-5.753,0-10.433-4.682-10.433-10.435c0-2.325,0.774-4.464,2.062-6.202c-1.314-1.27-3.031-2.094-4.936-2.33
		c-1.583,2.462-2.512,5.387-2.512,8.532c0,8.736,7.082,15.82,15.821,15.82c8.737,0,15.819-7.081,15.819-15.82
		C46.5,15.692,39.414,8.612,30.678,8.612z"/>
	<path fill="#FF5E69" d="M16.318,40.25c1.789,0,3.504-0.313,5.108-0.859c-1.914-1.188-3.58-2.729-4.913-4.537
		c-0.067,0.002-0.129,0.012-0.195,0.012c-5.753,0-10.435-4.68-10.435-10.435s4.681-10.432,10.435-10.432
		c5.752,0,10.433,4.679,10.433,10.432c0,2.325-0.772,4.464-2.062,6.203c1.313,1.268,3.031,2.094,4.936,2.328
		c1.585-2.462,2.514-5.386,2.514-8.531c0-8.736-7.082-15.819-15.821-15.819C7.58,8.61,0.5,15.694,0.5,24.43
		C0.5,33.166,7.581,40.25,16.318,40.25z"/>
</g>
</svg>
