<?xml version="1.0" encoding="utf-8"?>
<!-- Generator: Adobe Illustrator 13.0.0, SVG Export Plug-In . SVG Version: 6.00 Build 14948)  -->
<!DOCTYPE svg PUBLIC "-//W3C//DTD SVG 1.1//EN" "http://www.w3.org/Graphics/SVG/1.1/DTD/svg11.dtd">
<svg version="1.1" id="Capa_1" xmlns="http://www.w3.org/2000/svg" xmlns:xlink="http://www.w3.org/1999/xlink" x="0px" y="0px"
	 width="60px" height="60px" viewBox="-6 -6 60 60" enable-background="new -6 -6 60 60" xml:space="preserve">
<g>
	<g>
		<g>
			<path fill="#EB8791" d="M24-6C7.432-6-6,7.432-6,24c0,16.572,13.432,30,30,30c16.572,0,30-13.428,30-30C54,7.432,40.572-6,24-6z
				 M38.393,30.4c-0.779,0.78-2.049,0.78-2.828,0L24,18.836L12.437,30.4c-0.78,0.78-2.049,0.78-2.829,0
				c-0.78-0.776-0.78-2.049,0-2.828L22.58,14.6c0.392-0.392,0.904-0.584,1.42-0.584c0.518,0,1.027,0.192,1.421,0.584l12.972,12.972
				C39.172,28.352,39.172,29.615,38.393,30.4z"/>
		</g>
	</g>
</g>
<rect fill="none" width="48" height="48"/>
</svg>
